<!DOCTYPE svg PUBLIC "-//W3C//DTD SVG 1.1//EN" "http://www.w3.org/Graphics/SVG/1.1/DTD/svg11.dtd">
<!-- Uploaded to: SVG Repo, www.svgrepo.com, Transformed by: SVG Repo Mixer Tools -->
<svg fill="#12120c" width="800px" height="800px" viewBox="-3.2 -3.2 38.40 38.40" version="1.1" xmlns="http://www.w3.org/2000/svg" stroke="#12120c" stroke-width="0.00032">
<g id="SVGRepo_bgCarrier" stroke-width="0">
<rect x="-3.2" y="-3.2" width="38.40" height="38.40" rx="0" fill="#f0343c" strokewidth="0"/>
</g>
<g id="SVGRepo_tracerCarrier" stroke-linecap="round" stroke-linejoin="round"/>
<g id="SVGRepo_iconCarrier"> <title>mobile</title> <path d="M22 0.75h-12c-1.794 0.002-3.248 1.456-3.25 3.25v24c0.002 1.794 1.456 3.248 3.25 3.25h12c1.794-0.001 3.249-1.456 3.25-3.25v-24c-0.002-1.794-1.456-3.248-3.25-3.25h-0zM22.75 28c-0 0.414-0.336 0.75-0.75 0.75h-12c-0.414-0-0.75-0.336-0.75-0.75v-24c0.001-0.414 0.336-0.749 0.75-0.75h12c0.414 0 0.75 0.336 0.75 0.75v0zM18 25.25h-4c-0.69 0-1.25 0.56-1.25 1.25s0.56 1.25 1.25 1.25v0h4c0.69 0 1.25-0.56 1.25-1.25s-0.56-1.25-1.25-1.25v0z"/> </g>
</svg>